# xmcd
#
# Track frame offsets:
#	150
#	21177
#	39662
#	58445
#	78035
#	95782
#	115432
#	134250
#	148855
#	167175
#	184385
#	204230
#
# Disc length: 2932 seconds
#
# Revision: 3
# Processed by: cddbd v1.5.2PL0 Copyright (c) Steve Scherf et al.
# Submitted via: EasyCDDAExtractor 15.3.0.1
#
DISCID=b30b720c
DTITLE=Daniela Romo Y Ednita Nazario - Acariciando Tu Corazon - 12 Super Exito
DTITLE=s
DYEAR=1993
DGENRE=Latin
TTITLE0=Ednita Nazario - Lo Que Son Las Cosas
TTITLE1=Daniela Romo - Quiero Amanecer Con Alguien
TTITLE2=Ednita Nazario - Despues De Tanto
TTITLE3=Daniela Romo - Todo, Todo, Todo
TTITLE4=Ednita Nazario - Eres Libre
TTITLE5=Daniela Romo - Duele
TTITLE6=Ednita Nazario - Mas Que Un Amigo
TTITLE7=Daniela Romo - Nadie Entiende
TTITLE8=Ednita Nazario - Por Ti Me Casare
TTITLE9=Daniela Romo - Dimelo
TTITLE10=Ednita Nazario - Ahora Es Tarde Ya
TTITLE11=Daniela Romo - De Mi Enamorate
EXTD=
EXTT0=
EXTT1=
EXTT2=
EXTT3=
EXTT4=
EXTT5=
EXTT6=
EXTT7=
EXTT8=
EXTT9=
EXTT10=
EXTT11=
PLAYORDER=
